<!-- Generator: Adobe Illustrator 21.1.0, SVG Export Plug-In  -->
<svg version="1.1"
	 xmlns="http://www.w3.org/2000/svg" xmlns:xlink="http://www.w3.org/1999/xlink" xmlns:a="http://ns.adobe.com/AdobeSVGViewerExtensions/3.0/"
	 x="0px" y="0px" width="210.3px" height="72.2px" viewBox="0 0 210.3 72.2" style="enable-background:new 0 0 210.3 72.2;"
	 xml:space="preserve">
<style type="text/css">
	.st0{fill:none;stroke:#000000;stroke-width:0.25;stroke-miterlimit:10;}
	.st1{fill:none;stroke:#000000;stroke-width:0.2505;stroke-miterlimit:10;}
</style>
<defs>
</defs>
<g>
	<polygon class="st0" points="210.2,72.1 33.2,72.1 0.2,0.1 210.2,0.1 	"/>
	<line class="st1" x1="0.2" y1="39.6" x2="210.2" y2="39.6" shape-rendering="optimizeQuality"/>
	<g>
		<path d="M12.6,22.7V32H8.2V8.2h7.2c1.6,0,3,0.2,4.2,0.5c1.2,0.3,2.1,0.8,2.8,1.4c0.7,0.6,1.3,1.3,1.6,2.2s0.5,1.8,0.5,2.8
			c0,0.8-0.1,1.6-0.4,2.3c-0.2,0.7-0.6,1.4-1,1.9c-0.4,0.6-1,1.1-1.6,1.5c-0.7,0.4-1.4,0.8-2.2,1.1c0.6,0.3,1,0.8,1.4,1.4l5.9,8.8
			h-4c-0.4,0-0.7-0.1-1-0.2c-0.3-0.2-0.5-0.4-0.7-0.7l-5-7.6c-0.2-0.3-0.4-0.5-0.6-0.6c-0.2-0.1-0.6-0.2-1-0.2H12.6z M12.6,19.5h2.8
			c0.8,0,1.6-0.1,2.2-0.3c0.6-0.2,1.1-0.5,1.5-0.9c0.4-0.4,0.7-0.8,0.9-1.3c0.2-0.5,0.3-1.1,0.3-1.7c0-1.2-0.4-2.1-1.2-2.8
			c-0.8-0.6-2-1-3.6-1h-2.8V19.5z"/>
		<path d="M51.1,8.2v3.5H40.6v6.6h8.3v3.4h-8.3v6.7h10.5V32h-15V8.2H51.1z"/>
		<path d="M66,28.3h9.5V32H61.6V8.2H66V28.3z"/>
		<path d="M90.1,32h-4.4V8.2h4.4V32z"/>
		<path d="M113,28.7c1,0,1.9-0.1,2.6-0.3s1.4-0.4,2.1-0.7v-4.3h-3c-0.3,0-0.5-0.1-0.7-0.2c-0.2-0.2-0.2-0.4-0.2-0.6v-2.5h7.9v9.6
			c-0.6,0.4-1.2,0.8-1.9,1.1c-0.7,0.3-1.3,0.6-2.1,0.8s-1.5,0.4-2.4,0.5c-0.8,0.1-1.7,0.2-2.7,0.2c-1.7,0-3.3-0.3-4.8-0.9
			s-2.7-1.4-3.8-2.5c-1.1-1.1-1.9-2.4-2.5-3.8c-0.6-1.5-0.9-3.1-0.9-4.9c0-1.8,0.3-3.4,0.9-4.9c0.6-1.5,1.4-2.8,2.5-3.8
			c1.1-1.1,2.4-1.9,3.9-2.5c1.5-0.6,3.2-0.9,5.1-0.9c1.9,0,3.6,0.3,5,0.9c1.4,0.6,2.6,1.3,3.6,2.2l-1.3,2c-0.3,0.4-0.6,0.6-1,0.6
			c-0.3,0-0.5-0.1-0.8-0.3c-0.4-0.2-0.7-0.4-1.1-0.6c-0.4-0.2-0.8-0.4-1.2-0.5c-0.4-0.2-0.9-0.3-1.5-0.4c-0.6-0.1-1.2-0.1-1.9-0.1
			c-1.2,0-2.2,0.2-3.2,0.6c-0.9,0.4-1.8,1-2.4,1.7c-0.7,0.7-1.2,1.6-1.5,2.6c-0.4,1-0.5,2.2-0.5,3.4c0,1.4,0.2,2.6,0.6,3.7
			c0.4,1.1,0.9,2,1.6,2.7c0.7,0.7,1.5,1.3,2.5,1.7C110.8,28.5,111.8,28.7,113,28.7z"/>
		<path d="M137.4,32H133V8.2h4.4V32z"/>
		<path d="M172.1,20.1c0,1.7-0.3,3.3-0.9,4.8c-0.6,1.5-1.4,2.8-2.4,3.8c-1,1.1-2.3,1.9-3.8,2.5c-1.5,0.6-3.1,0.9-4.9,0.9
			s-3.4-0.3-4.9-0.9c-1.5-0.6-2.8-1.5-3.8-2.5c-1.1-1.1-1.9-2.4-2.5-3.8c-0.6-1.5-0.9-3.1-0.9-4.8c0-1.7,0.3-3.3,0.9-4.8
			c0.6-1.5,1.4-2.8,2.5-3.8c1.1-1.1,2.3-1.9,3.8-2.5c1.5-0.6,3.1-0.9,4.9-0.9s3.4,0.3,4.9,0.9c1.5,0.6,2.7,1.5,3.8,2.5
			c1,1.1,1.9,2.4,2.4,3.8C171.8,16.7,172.1,18.4,172.1,20.1z M167.6,20.1c0-1.3-0.2-2.5-0.5-3.5c-0.3-1-0.8-1.9-1.5-2.6
			c-0.6-0.7-1.4-1.3-2.4-1.7c-0.9-0.4-2-0.6-3.1-0.6s-2.2,0.2-3.1,0.6c-0.9,0.4-1.7,0.9-2.4,1.7c-0.7,0.7-1.2,1.6-1.5,2.6
			c-0.4,1-0.5,2.2-0.5,3.5c0,1.3,0.2,2.5,0.5,3.5c0.4,1,0.9,1.9,1.5,2.6c0.7,0.7,1.4,1.3,2.4,1.6c0.9,0.4,2,0.6,3.1,0.6
			s2.2-0.2,3.1-0.6c0.9-0.4,1.7-0.9,2.4-1.6c0.6-0.7,1.1-1.6,1.5-2.6C167.4,22.6,167.6,21.4,167.6,20.1z"/>
		<path d="M185,8.3c0.1,0,0.2,0,0.4,0.1s0.2,0.1,0.3,0.2c0.1,0.1,0.2,0.2,0.3,0.4l12.5,15.9l-0.1-16.6h3.9V32h-2.3
			c-0.4,0-0.6-0.1-0.9-0.2c-0.2-0.1-0.5-0.3-0.7-0.6L186,15.4l0.1,16.6h-3.9V8.2h2.3C184.7,8.2,184.9,8.2,185,8.3z"/>
	</g>
	<g>
		<path d="M8.7,63.7H8.1V56h0.6V63.7z"/>
		<path d="M13.7,56C13.8,56,13.8,56,13.7,56l5.1,6.7l0-6.8h0.5v7.7H19c-0.1,0-0.2,0-0.2-0.1l-5-6.7l0,6.8h-0.5V56h0.3
			C13.7,56,13.7,56,13.7,56z"/>
		<path d="M48.6,63.7h-0.9c-0.1,0-0.2,0-0.3-0.1c-0.1-0.1-0.1-0.1-0.2-0.2l-1.9-4.6h-7.8l-1.9,4.6c0,0.1-0.1,0.2-0.2,0.2
			c-0.1,0.1-0.2,0.1-0.3,0.1h-0.9l6.5-15.9H42L48.6,63.7z M37.9,57.9H45l-3.6-9L37.9,57.9z"/>
		<path d="M70.5,59.7L77,47.9c0.1-0.1,0.1-0.2,0.2-0.2c0.1,0,0.1,0,0.2,0h0.8v15.9h-1l0-14.2L71,60.6c-0.1,0.2-0.3,0.3-0.5,0.3h-0.2
			c-0.2,0-0.3-0.1-0.5-0.3l-6.4-11.1l0,14.2h-1V47.7h0.8c0.1,0,0.2,0,0.3,0c0.1,0,0.1,0.1,0.2,0.2L70.5,59.7z"/>
		<path d="M104,47.7v1h-8.4v6.4h7v0.9h-7v6.6h8.4v1h-9.5V47.7H104z"/>
		<path d="M120.7,56.5v7.2h-1.1V47.7h4.1c1.8,0,3.2,0.4,4.1,1.1c0.9,0.7,1.4,1.8,1.4,3.1c0,0.6-0.1,1.2-0.3,1.7
			c-0.2,0.5-0.5,0.9-0.9,1.3c-0.4,0.4-0.9,0.7-1.4,0.9c-0.6,0.2-1.2,0.4-1.9,0.5c0.2,0.1,0.3,0.3,0.5,0.5l5.5,6.9h-1
			c-0.1,0-0.2,0-0.3-0.1c-0.1,0-0.2-0.1-0.3-0.2l-5.1-6.5c-0.1-0.2-0.3-0.3-0.4-0.3c-0.1-0.1-0.4-0.1-0.7-0.1H120.7z M120.7,55.6
			h2.8c0.7,0,1.3-0.1,1.9-0.3c0.6-0.2,1-0.4,1.4-0.7c0.4-0.3,0.7-0.7,0.9-1.1c0.2-0.4,0.3-0.9,0.3-1.5c0-1.1-0.4-2-1.1-2.5
			s-1.8-0.8-3.2-0.8h-2.9V55.6z"/>
		<path d="M146.4,63.7h-1.2V47.7h1.2V63.7z"/>
		<path d="M174.6,61c0.1,0,0.1,0,0.2,0.1l0.5,0.5c-0.3,0.4-0.7,0.7-1.1,1c-0.4,0.3-0.8,0.5-1.3,0.7c-0.5,0.2-1,0.4-1.5,0.5
			c-0.6,0.1-1.2,0.2-1.8,0.2c-1.1,0-2.1-0.2-3-0.6c-0.9-0.4-1.7-0.9-2.4-1.6c-0.7-0.7-1.2-1.6-1.5-2.6c-0.4-1-0.6-2.1-0.6-3.4
			c0-1.2,0.2-2.3,0.6-3.3c0.4-1,0.9-1.9,1.6-2.6c0.7-0.7,1.5-1.3,2.5-1.7c1-0.4,2-0.6,3.2-0.6c0.6,0,1.1,0,1.6,0.1
			c0.5,0.1,0.9,0.2,1.3,0.4c0.4,0.2,0.8,0.4,1.2,0.6c0.4,0.2,0.7,0.5,1.1,0.8l-0.3,0.5c-0.1,0.1-0.2,0.1-0.3,0.1
			c-0.1,0-0.2,0-0.3-0.1c-0.1-0.1-0.2-0.2-0.4-0.3c-0.2-0.1-0.4-0.2-0.6-0.4c-0.2-0.1-0.5-0.3-0.8-0.4c-0.3-0.1-0.7-0.2-1.1-0.3
			c-0.4-0.1-0.9-0.1-1.4-0.1c-1,0-1.9,0.2-2.7,0.5c-0.8,0.3-1.5,0.8-2.1,1.4c-0.6,0.6-1,1.4-1.4,2.3c-0.3,0.9-0.5,1.9-0.5,3
			c0,1.1,0.2,2.1,0.5,3c0.3,0.9,0.8,1.6,1.3,2.2c0.6,0.6,1.2,1.1,2,1.4c0.8,0.3,1.6,0.5,2.5,0.5c0.6,0,1.1,0,1.5-0.1
			c0.4-0.1,0.9-0.2,1.2-0.3c0.4-0.1,0.7-0.3,1-0.6c0.3-0.2,0.6-0.5,1-0.8c0,0,0.1-0.1,0.1-0.1C174.5,61,174.5,61,174.6,61z"/>
		<path d="M202.3,63.7h-0.9c-0.1,0-0.2,0-0.3-0.1c-0.1-0.1-0.1-0.1-0.2-0.2l-1.9-4.6h-7.8l-1.9,4.6c0,0.1-0.1,0.2-0.2,0.2
			c-0.1,0.1-0.2,0.1-0.3,0.1h-0.9l6.5-15.9h1.1L202.3,63.7z M191.6,57.9h7.1l-3.6-9L191.6,57.9z"/>
	</g>
</g>
</svg>