<!-- Generator: Adobe Illustrator 21.0.2, SVG Export Plug-In  -->
<svg version="1.1"
	 xmlns="http://www.w3.org/2000/svg" xmlns:xlink="http://www.w3.org/1999/xlink" xmlns:a="http://ns.adobe.com/AdobeSVGViewerExtensions/3.0/"
	 x="0px" y="0px" width="209.9px" height="71.7px" viewBox="0 0 209.9 71.7" style="enable-background:new 0 0 209.9 71.7;"
	 xml:space="preserve">
<style type="text/css">
	.st0{fill:none;stroke:#000000;stroke-width:0.25;stroke-miterlimit:10;}
</style>
<defs>
</defs>
<g>
	<g>
		<path d="M12.6,22.6v9.3H8.2V8.2h7.2c1.6,0,3,0.2,4.2,0.5c1.2,0.3,2.1,0.8,2.8,1.4c0.7,0.6,1.3,1.3,1.6,2.2
			c0.3,0.8,0.5,1.8,0.5,2.8c0,0.8-0.1,1.6-0.4,2.3c-0.2,0.7-0.6,1.4-1,1.9c-0.4,0.6-1,1.1-1.6,1.5c-0.6,0.4-1.4,0.8-2.2,1
			c0.6,0.3,1,0.8,1.4,1.4l5.9,8.7h-4c-0.4,0-0.7-0.1-1-0.2c-0.3-0.2-0.5-0.4-0.7-0.7l-5-7.6c-0.2-0.3-0.4-0.5-0.6-0.6
			c-0.2-0.1-0.6-0.2-1-0.2H12.6z M12.6,19.5h2.8c0.8,0,1.6-0.1,2.2-0.3c0.6-0.2,1.1-0.5,1.5-0.9c0.4-0.4,0.7-0.8,0.9-1.3
			c0.2-0.5,0.3-1.1,0.3-1.7c0-1.2-0.4-2.1-1.2-2.8c-0.8-0.6-2-1-3.6-1h-2.8V19.5z"/>
		<path d="M51,8.2v3.5H40.5v6.6h8.3v3.4h-8.3v6.7H51v3.5H36.1V8.2H51z"/>
		<path d="M65.8,28.3h9.5v3.6H61.4V8.2h4.4V28.3z"/>
		<path d="M89.9,31.9h-4.4V8.2h4.4V31.9z"/>
		<path d="M112.7,28.6c1,0,1.9-0.1,2.6-0.3c0.7-0.2,1.4-0.4,2.1-0.7v-4.3h-3c-0.3,0-0.5-0.1-0.7-0.2s-0.2-0.4-0.2-0.6V20h7.9v9.6
			c-0.6,0.4-1.2,0.8-1.9,1.1c-0.6,0.3-1.3,0.6-2.1,0.8s-1.5,0.4-2.4,0.5c-0.8,0.1-1.7,0.2-2.7,0.2c-1.7,0-3.3-0.3-4.8-0.9
			s-2.7-1.4-3.8-2.5c-1.1-1.1-1.9-2.3-2.5-3.8c-0.6-1.5-0.9-3.1-0.9-4.9c0-1.8,0.3-3.4,0.9-4.9s1.4-2.8,2.5-3.8
			c1.1-1.1,2.4-1.9,3.9-2.5s3.2-0.9,5.1-0.9c1.9,0,3.6,0.3,5,0.9c1.4,0.6,2.6,1.3,3.6,2.2l-1.3,2c-0.3,0.4-0.6,0.6-1,0.6
			c-0.3,0-0.5-0.1-0.8-0.3c-0.3-0.2-0.7-0.4-1.1-0.6c-0.4-0.2-0.8-0.4-1.2-0.5c-0.4-0.2-0.9-0.3-1.5-0.4c-0.6-0.1-1.2-0.1-1.9-0.1
			c-1.2,0-2.2,0.2-3.2,0.6c-0.9,0.4-1.7,1-2.4,1.7c-0.7,0.7-1.2,1.6-1.5,2.6c-0.4,1-0.5,2.2-0.5,3.4c0,1.4,0.2,2.6,0.6,3.6
			c0.4,1.1,0.9,2,1.6,2.7c0.7,0.7,1.5,1.3,2.5,1.7C110.6,28.5,111.6,28.6,112.7,28.6z"/>
		<path d="M137.1,31.9h-4.4V8.2h4.4V31.9z"/>
		<path d="M171.8,20.1c0,1.7-0.3,3.3-0.9,4.8c-0.6,1.5-1.4,2.8-2.4,3.8s-2.3,1.9-3.8,2.5c-1.5,0.6-3.1,0.9-4.9,0.9s-3.4-0.3-4.9-0.9
			c-1.5-0.6-2.7-1.4-3.8-2.5s-1.9-2.4-2.4-3.8c-0.6-1.5-0.9-3.1-0.9-4.8c0-1.7,0.3-3.3,0.9-4.8c0.6-1.5,1.4-2.8,2.4-3.8
			s2.3-1.9,3.8-2.5c1.5-0.6,3.1-0.9,4.9-0.9s3.4,0.3,4.9,0.9c1.5,0.6,2.7,1.5,3.8,2.5c1,1.1,1.9,2.4,2.4,3.8
			C171.5,16.7,171.8,18.3,171.8,20.1z M167.2,20.1c0-1.3-0.2-2.5-0.5-3.5c-0.3-1-0.8-1.9-1.5-2.6s-1.4-1.3-2.3-1.7
			c-0.9-0.4-2-0.6-3.1-0.6c-1.2,0-2.2,0.2-3.1,0.6c-0.9,0.4-1.7,0.9-2.4,1.7s-1.1,1.6-1.5,2.6c-0.3,1-0.5,2.2-0.5,3.5
			c0,1.3,0.2,2.5,0.5,3.5c0.3,1,0.8,1.9,1.5,2.6c0.6,0.7,1.4,1.3,2.4,1.6c0.9,0.4,2,0.6,3.1,0.6c1.2,0,2.2-0.2,3.1-0.6
			s1.7-0.9,2.3-1.6c0.6-0.7,1.1-1.6,1.5-2.6C167.1,22.5,167.2,21.4,167.2,20.1z"/>
		<path d="M184.7,8.2c0.1,0,0.2,0,0.4,0.1c0.1,0,0.2,0.1,0.3,0.2c0.1,0.1,0.2,0.2,0.3,0.4l12.4,15.8c0-0.4-0.1-0.8-0.1-1.1
			c0-0.4,0-0.7,0-1V8.2h3.9v23.7h-2.3c-0.3,0-0.6-0.1-0.9-0.2c-0.2-0.1-0.5-0.3-0.7-0.6l-12.4-15.8c0,0.3,0.1,0.7,0.1,1
			c0,0.3,0,0.7,0,0.9v14.5h-3.9V8.2h2.3C184.4,8.2,184.5,8.2,184.7,8.2z"/>
	</g>
	<g>
		<path d="M8.7,63.5H8.1v-7.7h0.6V63.5z"/>
		<path d="M13.7,55.9C13.7,55.9,13.8,55.9,13.7,55.9l5.1,6.7c0-0.1,0-0.2,0-0.3v-6.4h0.5v7.7H19c-0.1,0-0.1,0-0.2-0.1l-5-6.7
			c0,0.1,0,0.2,0,0.3v6.5h-0.5v-7.7h0.3C13.6,55.9,13.7,55.9,13.7,55.9z"/>
		<path d="M48.5,63.5h-0.9c-0.1,0-0.2,0-0.3-0.1s-0.1-0.1-0.2-0.2l-1.9-4.6h-7.8l-1.9,4.6c0,0.1-0.1,0.2-0.2,0.2
			c-0.1,0.1-0.2,0.1-0.3,0.1h-0.9l6.5-15.9H42L48.5,63.5z M37.8,57.8h7.1l-3.2-8c-0.1-0.1-0.1-0.3-0.2-0.4c-0.1-0.2-0.1-0.3-0.2-0.5
			c-0.1,0.2-0.1,0.4-0.2,0.5c-0.1,0.2-0.1,0.3-0.2,0.4L37.8,57.8z"/>
		<path d="M70.3,59.6c0-0.1,0.1-0.2,0.1-0.4s0.1-0.2,0.2-0.3l6.2-11c0.1-0.1,0.1-0.2,0.2-0.2s0.1,0,0.2,0h0.8v15.9h-1V50
			c0-0.2,0-0.4,0-0.6l-6.3,11.1c-0.1,0.2-0.3,0.3-0.4,0.3h-0.2c-0.2,0-0.3-0.1-0.4-0.3l-6.4-11.1c0,0.2,0,0.4,0,0.6v13.6h-1V47.6
			h0.8c0.1,0,0.2,0,0.3,0c0.1,0,0.1,0.1,0.2,0.2L70,58.9C70.2,59.1,70.2,59.3,70.3,59.6z"/>
		<path d="M103.8,47.6v1h-8.4V55h7V56h-7v6.6h8.4v1h-9.5V47.6H103.8z"/>
		<path d="M120.4,56.3v7.2h-1.1V47.6h4.1c1.8,0,3.2,0.4,4.1,1.1c0.9,0.7,1.4,1.7,1.4,3.1c0,0.6-0.1,1.2-0.3,1.7
			c-0.2,0.5-0.5,0.9-0.9,1.3c-0.4,0.4-0.9,0.7-1.4,0.9c-0.6,0.2-1.2,0.4-1.9,0.5c0.2,0.1,0.3,0.3,0.5,0.4l5.5,6.9h-1
			c-0.1,0-0.2,0-0.3-0.1c-0.1,0-0.2-0.1-0.3-0.2l-5.1-6.5c-0.1-0.2-0.3-0.3-0.4-0.3s-0.4-0.1-0.7-0.1H120.4z M120.4,55.5h2.8
			c0.7,0,1.3-0.1,1.9-0.3c0.6-0.2,1-0.4,1.4-0.7c0.4-0.3,0.7-0.7,0.9-1.1c0.2-0.4,0.3-0.9,0.3-1.5c0-1.1-0.4-2-1.1-2.5
			s-1.8-0.8-3.2-0.8h-2.9V55.5z"/>
		<path d="M146.1,63.5H145V47.6h1.2V63.5z"/>
		<path d="M174.2,60.9c0.1,0,0.1,0,0.2,0.1l0.4,0.5c-0.3,0.4-0.7,0.7-1.1,0.9c-0.4,0.3-0.8,0.5-1.3,0.7c-0.5,0.2-1,0.4-1.5,0.5
			c-0.6,0.1-1.2,0.2-1.8,0.2c-1.1,0-2.1-0.2-3-0.6c-0.9-0.4-1.7-0.9-2.4-1.6c-0.7-0.7-1.2-1.6-1.5-2.6c-0.4-1-0.6-2.1-0.6-3.3
			c0-1.2,0.2-2.3,0.6-3.3c0.4-1,0.9-1.9,1.6-2.6c0.7-0.7,1.5-1.3,2.5-1.7c1-0.4,2-0.6,3.2-0.6c0.6,0,1.1,0,1.6,0.1
			c0.5,0.1,0.9,0.2,1.3,0.4c0.4,0.2,0.8,0.4,1.2,0.6c0.4,0.2,0.7,0.5,1.1,0.8l-0.3,0.5c-0.1,0.1-0.2,0.1-0.3,0.1
			c-0.1,0-0.2,0-0.3-0.1c-0.1-0.1-0.2-0.2-0.4-0.3c-0.2-0.1-0.4-0.2-0.6-0.4c-0.2-0.1-0.5-0.3-0.8-0.4c-0.3-0.1-0.7-0.2-1.1-0.3
			c-0.4-0.1-0.9-0.1-1.4-0.1c-1,0-1.9,0.2-2.7,0.5c-0.8,0.3-1.5,0.8-2.1,1.4c-0.6,0.6-1,1.4-1.4,2.2c-0.3,0.9-0.5,1.9-0.5,3
			c0,1.1,0.2,2.1,0.5,3s0.8,1.6,1.3,2.2s1.2,1.1,2,1.4c0.8,0.3,1.6,0.5,2.5,0.5c0.6,0,1.1,0,1.5-0.1s0.9-0.2,1.2-0.3s0.7-0.3,1-0.6
			c0.3-0.2,0.6-0.5,1-0.8c0,0,0.1-0.1,0.1-0.1C174.2,60.9,174.2,60.9,174.2,60.9z"/>
		<path d="M201.9,63.5H201c-0.1,0-0.2,0-0.3-0.1s-0.1-0.1-0.2-0.2l-1.9-4.6h-7.8l-1.9,4.6c0,0.1-0.1,0.2-0.2,0.2
			c-0.1,0.1-0.2,0.1-0.3,0.1h-0.9l6.5-15.9h1.1L201.9,63.5z M191.2,57.8h7.1l-3.2-8c-0.1-0.1-0.1-0.3-0.2-0.4
			c-0.1-0.2-0.1-0.3-0.2-0.5c-0.1,0.2-0.1,0.4-0.2,0.5c-0.1,0.2-0.1,0.3-0.2,0.4L191.2,57.8z"/>
	</g>
	<polygon class="st0" points="209.8,71.5 32.6,71.5 0.2,0.1 209.8,0.1 	"/>
	<line class="st0" x1="0.2" y1="39.8" x2="209.8" y2="39.8"/>
</g>
</svg>