<!-- Generator: Adobe Illustrator 21.0.2, SVG Export Plug-In  -->
<svg version="1.1"
	 xmlns="http://www.w3.org/2000/svg" xmlns:xlink="http://www.w3.org/1999/xlink" xmlns:a="http://ns.adobe.com/AdobeSVGViewerExtensions/3.0/"
	 x="0px" y="0px" width="18.4px" height="16px" viewBox="0 0 18.4 16" style="enable-background:new 0 0 18.4 16;"
	 xml:space="preserve">
<style type="text/css">
	.st0{fill:#C49F21;}
</style>
<defs>
</defs>
<g>
	<path class="st0" d="M1.2,4.7h16c0.5,0,0.4-0.6,0.2-0.7c-0.3-0.1-3.2-1.2-3.8-1.2h-0.8V0H5.6v2.8H4.8C4.3,2.8,1.3,3.9,1,4
		C0.8,4.1,0.7,4.7,1.2,4.7z M17.4,5.7H1c-0.5,0-1,0.6-1,1.1v3.3c0,0.5,0.5,1.1,1,1.1h1.9L2.1,16h14.3l-0.8-4.7h1.9
		c0.5,0,1-0.6,1-1.1V6.9C18.4,6.4,17.9,5.7,17.4,5.7z M4,14.1L5.3,8h7.9l1.3,6.1H4z"/>
</g>
</svg>