<!-- Generator: Adobe Illustrator 21.0.2, SVG Export Plug-In  -->
<svg version="1.1"
	 xmlns="http://www.w3.org/2000/svg" xmlns:xlink="http://www.w3.org/1999/xlink" xmlns:a="http://ns.adobe.com/AdobeSVGViewerExtensions/3.0/"
	 x="0px" y="0px" width="22.6px" height="26.4px" viewBox="0 0 22.6 26.4" style="enable-background:new 0 0 22.6 26.4;"
	 xml:space="preserve">
<style type="text/css">
	.st0{fill:#555457;}
</style>
<defs>
</defs>
<g>
	<g>
		<path class="st0" d="M0,14.6l0-2.8L22.6,0v5c0,0.4-0.1,0.7-0.3,1c-0.2,0.3-0.5,0.6-0.9,0.8L11,12.2c-0.4,0.2-0.9,0.4-1.4,0.6
			c-0.5,0.2-1,0.3-1.6,0.4c1.1,0.3,2.1,0.6,2.9,1l10.3,5.3c0.4,0.2,0.8,0.5,0.9,0.8c0.2,0.3,0.3,0.7,0.3,1v5L0,14.6z"/>
	</g>
</g>
</svg>