<!-- Generator: Adobe Illustrator 21.0.2, SVG Export Plug-In  -->
<svg version="1.1"
	 xmlns="http://www.w3.org/2000/svg" xmlns:xlink="http://www.w3.org/1999/xlink" xmlns:a="http://ns.adobe.com/AdobeSVGViewerExtensions/3.0/"
	 x="0px" y="0px" width="185px" height="63.2px" viewBox="0 0 185 63.2" style="enable-background:new 0 0 185 63.2;"
	 xml:space="preserve">
<style type="text/css">
	.st0{fill:none;stroke:#000000;stroke-width:0.2623;stroke-miterlimit:10;}
</style>
<defs>
</defs>
<g>
	<g>
		<path d="M11.1,20v8.2H7.2V7.3h6.4c1.4,0,2.6,0.1,3.7,0.4s1.8,0.7,2.5,1.2c0.6,0.5,1.1,1.2,1.4,1.9c0.3,0.7,0.5,1.5,0.5,2.4
			c0,0.7-0.1,1.4-0.3,2c-0.2,0.6-0.5,1.2-0.9,1.7s-0.9,1-1.4,1.3c-0.6,0.4-1.2,0.7-2,0.9c0.5,0.3,0.9,0.7,1.3,1.2l5.2,7.7H20
			c-0.3,0-0.6-0.1-0.9-0.2c-0.2-0.1-0.4-0.3-0.6-0.6l-4.4-6.7c-0.2-0.2-0.3-0.4-0.5-0.5C13.4,20,13.1,20,12.8,20H11.1z M11.1,17.2
			h2.4c0.7,0,1.4-0.1,1.9-0.3c0.5-0.2,1-0.4,1.3-0.8c0.4-0.3,0.6-0.7,0.8-1.1c0.2-0.4,0.3-0.9,0.3-1.5c0-1.1-0.3-1.9-1-2.4
			s-1.8-0.9-3.2-0.9h-2.5V17.2z"/>
		<path d="M45,7.3v3.1h-9.2v5.8H43v3h-7.3V25H45v3.1H31.8V7.3H45z"/>
		<path d="M58,24.9h8.4v3.2H54.2V7.3H58V24.9z"/>
		<path d="M79.3,28.1h-3.9V7.3h3.9V28.1z"/>
		<path d="M99.4,25.3c0.9,0,1.6-0.1,2.3-0.2c0.6-0.2,1.3-0.4,1.9-0.7v-3.8h-2.6c-0.2,0-0.4-0.1-0.6-0.2c-0.1-0.1-0.2-0.3-0.2-0.5
			v-2.2h6.9v8.4c-0.5,0.4-1.1,0.7-1.7,1c-0.6,0.3-1.2,0.5-1.8,0.7c-0.6,0.2-1.3,0.3-2.1,0.4c-0.7,0.1-1.5,0.1-2.4,0.1
			c-1.5,0-2.9-0.3-4.2-0.8c-1.3-0.5-2.4-1.3-3.3-2.2c-0.9-0.9-1.7-2.1-2.2-3.4c-0.5-1.3-0.8-2.7-0.8-4.3c0-1.6,0.3-3,0.8-4.3
			s1.2-2.4,2.2-3.4s2.1-1.7,3.4-2.2C96.3,7.3,97.8,7,99.4,7c1.7,0,3.2,0.3,4.4,0.8s2.3,1.2,3.2,2l-1.1,1.8c-0.2,0.4-0.5,0.5-0.9,0.5
			c-0.2,0-0.5-0.1-0.7-0.2c-0.3-0.2-0.6-0.4-0.9-0.5s-0.7-0.3-1.1-0.5c-0.4-0.1-0.8-0.2-1.3-0.3c-0.5-0.1-1-0.1-1.7-0.1
			c-1,0-2,0.2-2.8,0.5c-0.8,0.3-1.5,0.8-2.1,1.5s-1,1.4-1.4,2.3c-0.3,0.9-0.5,1.9-0.5,3c0,1.2,0.2,2.3,0.5,3.2s0.8,1.7,1.4,2.4
			c0.6,0.6,1.3,1.1,2.2,1.5C97.5,25.1,98.4,25.3,99.4,25.3z"/>
		<path d="M120.9,28.1H117V7.3h3.9V28.1z"/>
		<path d="M151.4,17.7c0,1.5-0.3,2.9-0.8,4.2c-0.5,1.3-1.2,2.4-2.1,3.4c-0.9,1-2,1.7-3.3,2.2c-1.3,0.5-2.7,0.8-4.3,0.8
			s-3-0.3-4.3-0.8c-1.3-0.5-2.4-1.3-3.3-2.2s-1.6-2.1-2.2-3.4c-0.5-1.3-0.8-2.7-0.8-4.2c0-1.5,0.3-2.9,0.8-4.2s1.2-2.4,2.2-3.4
			s2-1.7,3.3-2.2c1.3-0.5,2.7-0.8,4.3-0.8s3,0.3,4.3,0.8c1.3,0.5,2.4,1.3,3.3,2.2c0.9,0.9,1.6,2.1,2.1,3.4S151.4,16.2,151.4,17.7z
			 M147.4,17.7c0-1.1-0.2-2.2-0.5-3.1s-0.7-1.7-1.3-2.3s-1.3-1.1-2.1-1.5c-0.8-0.3-1.7-0.5-2.7-0.5s-1.9,0.2-2.8,0.5
			s-1.5,0.8-2.1,1.5s-1,1.4-1.3,2.3c-0.3,0.9-0.5,1.9-0.5,3.1c0,1.1,0.2,2.2,0.5,3.1c0.3,0.9,0.7,1.7,1.3,2.3s1.3,1.1,2.1,1.4
			c0.8,0.3,1.7,0.5,2.8,0.5s1.9-0.2,2.7-0.5c0.8-0.3,1.5-0.8,2.1-1.4s1-1.4,1.3-2.3C147.2,19.9,147.4,18.8,147.4,17.7z"/>
		<path d="M162.7,7.3c0.1,0,0.2,0,0.3,0.1c0.1,0,0.2,0.1,0.3,0.2c0.1,0.1,0.2,0.2,0.3,0.3l10.9,14c0-0.3-0.1-0.7-0.1-1s0-0.6,0-0.9
			V7.3h3.4v20.9h-2c-0.3,0-0.6,0-0.8-0.1c-0.2-0.1-0.4-0.3-0.6-0.5l-10.9-13.9c0,0.3,0.1,0.6,0.1,0.9c0,0.3,0,0.6,0,0.8v12.8h-3.4
			V7.3h2C162.5,7.3,162.6,7.3,162.7,7.3z"/>
	</g>
	<g>
		<path d="M7.7,56H7.2v-6.8h0.5V56z"/>
		<path d="M12.1,49.3C12.1,49.3,12.2,49.3,12.1,49.3l4.5,5.9c0-0.1,0-0.2,0-0.3v-5.7H17V56h-0.2c-0.1,0-0.1,0-0.2-0.1L12.2,50
			c0,0.1,0,0.2,0,0.3V56h-0.4v-6.8H12C12.1,49.3,12.1,49.3,12.1,49.3z"/>
		<path d="M42.7,56H42c-0.1,0-0.2,0-0.2-0.1c-0.1,0-0.1-0.1-0.1-0.2l-1.7-4.1h-6.9l-1.6,4.1c0,0.1-0.1,0.1-0.1,0.2
			C31.2,56,31.1,56,31,56h-0.8L36,42h1L42.7,56z M33.4,50.9h6.3l-2.9-7.1c0-0.1-0.1-0.2-0.1-0.4c0-0.1-0.1-0.3-0.1-0.5
			c0,0.2-0.1,0.3-0.1,0.5c0,0.1-0.1,0.3-0.1,0.4L33.4,50.9z"/>
		<path d="M62,52.5c0-0.1,0.1-0.2,0.1-0.3c0-0.1,0.1-0.2,0.1-0.3l5.5-9.7c0.1-0.1,0.1-0.1,0.2-0.2c0.1,0,0.1,0,0.2,0h0.7v14H68V44.1
			c0-0.2,0-0.4,0-0.5l-5.5,9.8c-0.1,0.2-0.2,0.3-0.4,0.3h-0.2c-0.2,0-0.3-0.1-0.4-0.3l-5.7-9.8c0,0.2,0,0.4,0,0.6V56H55V42h0.7
			c0.1,0,0.2,0,0.2,0c0.1,0,0.1,0.1,0.2,0.2l5.7,9.7C61.8,52.1,61.9,52.3,62,52.5z"/>
		<path d="M91.5,42v0.8h-7.4v5.7h6.1v0.8h-6.1v5.8h7.4V56h-8.4V42H91.5z"/>
		<path d="M106.1,49.7V56h-1V42h3.6c1.6,0,2.8,0.3,3.6,0.9s1.2,1.5,1.2,2.7c0,0.5-0.1,1-0.3,1.5c-0.2,0.4-0.5,0.8-0.8,1.2
			c-0.3,0.3-0.8,0.6-1.3,0.8c-0.5,0.2-1,0.4-1.7,0.4c0.2,0.1,0.3,0.2,0.4,0.4l4.8,6.1h-0.9c-0.1,0-0.2,0-0.3-0.1
			c-0.1,0-0.2-0.1-0.2-0.2l-4.5-5.7c-0.1-0.1-0.2-0.2-0.4-0.3s-0.3-0.1-0.6-0.1H106.1z M106.1,48.9h2.4c0.6,0,1.2-0.1,1.7-0.2
			c0.5-0.1,0.9-0.4,1.2-0.6s0.6-0.6,0.8-1c0.2-0.4,0.3-0.8,0.3-1.3c0-1-0.3-1.7-1-2.2c-0.7-0.5-1.6-0.7-2.9-0.7h-2.6V48.9z"/>
		<path d="M128.8,56h-1V42h1V56z"/>
		<path d="M153.6,53.6c0.1,0,0.1,0,0.2,0.1l0.4,0.4c-0.3,0.3-0.6,0.6-1,0.8s-0.7,0.5-1.1,0.6c-0.4,0.2-0.9,0.3-1.3,0.4
			c-0.5,0.1-1,0.1-1.6,0.1c-1,0-1.9-0.2-2.7-0.5s-1.5-0.8-2.1-1.4c-0.6-0.6-1-1.4-1.4-2.3s-0.5-1.9-0.5-3c0-1.1,0.2-2,0.5-2.9
			c0.3-0.9,0.8-1.6,1.4-2.3c0.6-0.6,1.3-1.1,2.2-1.5c0.8-0.3,1.8-0.5,2.8-0.5c0.5,0,1,0,1.4,0.1c0.4,0.1,0.8,0.2,1.2,0.3
			c0.4,0.1,0.7,0.3,1,0.5c0.3,0.2,0.6,0.5,1,0.7l-0.3,0.4c-0.1,0.1-0.1,0.1-0.2,0.1c-0.1,0-0.1,0-0.2-0.1s-0.2-0.2-0.4-0.3
			s-0.3-0.2-0.5-0.3s-0.4-0.2-0.7-0.3s-0.6-0.2-1-0.3s-0.8-0.1-1.2-0.1c-0.9,0-1.6,0.1-2.3,0.4s-1.3,0.7-1.8,1.3
			c-0.5,0.5-0.9,1.2-1.2,2c-0.3,0.8-0.4,1.6-0.4,2.6c0,1,0.1,1.9,0.4,2.7c0.3,0.8,0.7,1.4,1.2,2c0.5,0.5,1.1,1,1.8,1.2
			c0.7,0.3,1.4,0.4,2.2,0.4c0.5,0,0.9,0,1.3-0.1c0.4-0.1,0.8-0.2,1.1-0.3s0.6-0.3,0.9-0.5c0.3-0.2,0.6-0.4,0.8-0.7
			c0,0,0.1,0,0.1-0.1C153.5,53.7,153.5,53.6,153.6,53.6z"/>
		<path d="M177.9,56h-0.8c-0.1,0-0.2,0-0.2-0.1c-0.1,0-0.1-0.1-0.1-0.2l-1.7-4.1h-6.9l-1.6,4.1c0,0.1-0.1,0.1-0.1,0.2
			c-0.1,0.1-0.1,0.1-0.2,0.1h-0.8l5.7-14h1L177.9,56z M168.5,50.9h6.3l-2.9-7.1c0-0.1-0.1-0.2-0.1-0.4c0-0.1-0.1-0.3-0.1-0.5
			c0,0.2-0.1,0.3-0.1,0.5c0,0.1-0.1,0.3-0.1,0.4L168.5,50.9z"/>
	</g>
	<polygon class="st0" points="184.9,63 28.7,63.1 0.2,0.1 184.9,0.1 	"/>
	<line class="st0" x1="0.2" y1="35.1" x2="184.9" y2="35.1"/>
</g>
</svg>