<!-- Generator: Adobe Illustrator 21.0.2, SVG Export Plug-In  -->
<svg version="1.1"
	 xmlns="http://www.w3.org/2000/svg" xmlns:xlink="http://www.w3.org/1999/xlink" xmlns:a="http://ns.adobe.com/AdobeSVGViewerExtensions/3.0/"
	 x="0px" y="0px" width="8.7px" height="10.2px" viewBox="0 0 8.7 10.2" style="enable-background:new 0 0 8.7 10.2;"
	 xml:space="preserve">
<defs>
</defs>
<g>
	<path d="M0,4.5L8.7,0v1.9c0,0.1,0,0.3-0.1,0.4C8.5,2.5,8.4,2.6,8.2,2.7l-4,2C4.1,4.8,3.9,4.9,3.7,4.9C3.5,5,3.3,5,3.1,5.1
		c0.2,0.1,0.4,0.1,0.6,0.2c0.2,0.1,0.4,0.1,0.5,0.2l4,2.1c0.2,0.1,0.3,0.2,0.4,0.3C8.7,8,8.7,8.1,8.7,8.3v1.9L0,5.6V4.5z"/>
</g>
</svg>